<svg width="1024" height="1024" viewBox="0 0 1024 1024" fill="none" xmlns="http://www.w3.org/2000/svg">
<rect width="1024" height="1024" fill="#22C6F3"/>
<path d="M772.23 436.585H738.546C728.492 436.223 718.91 432.232 711.572 425.351C704.233 418.47 699.635 409.164 698.628 399.155C698.598 291.838 612.528 212.002 505.211 212.002H406.645C381.16 211.895 355.904 216.815 332.323 226.481C308.741 236.146 287.297 250.367 269.218 268.329C251.139 286.292 236.779 307.643 226.961 331.161C217.143 354.679 212.059 379.903 212 405.388V617.505C212.047 642.998 217.122 668.231 226.935 691.759C236.748 715.288 251.106 736.65 269.186 754.622C287.267 772.594 308.715 786.822 332.302 796.493C355.889 806.164 381.152 811.088 406.645 810.981H616.274C641.759 811.088 667.015 806.167 690.597 796.502C714.178 786.836 735.622 772.616 753.701 754.653C771.781 736.691 786.14 715.34 795.958 691.822C805.777 668.303 810.861 643.08 810.919 617.595V480.249C810.919 459.032 793.448 436.585 772.23 436.585ZM399.153 361.664H511.445C521.38 361.664 530.908 365.611 537.933 372.636C544.959 379.661 548.905 389.19 548.905 399.125C548.905 409.06 544.959 418.588 537.933 425.613C530.908 432.639 521.38 436.585 511.445 436.585H399.153C389.256 436.522 379.785 432.554 372.798 425.545C365.811 418.536 361.874 409.051 361.842 399.155C362.084 389.324 366.089 379.961 373.031 372.997C379.973 366.032 389.323 361.997 399.153 361.724V361.664ZM623.737 661.139H399.153C394.225 661.212 389.334 660.294 384.768 658.439C380.202 656.584 376.056 653.83 372.576 650.342C369.095 646.853 366.351 642.7 364.508 638.13C362.664 633.56 361.757 628.666 361.842 623.738C361.85 613.826 365.777 604.319 372.766 597.29C379.756 590.261 389.241 586.281 399.153 586.218H623.737C633.654 586.249 643.156 590.203 650.169 597.216C657.182 604.229 661.135 613.731 661.167 623.648C661.265 628.593 660.364 633.507 658.518 638.096C656.672 642.685 653.92 646.854 650.425 650.354C646.93 653.854 642.766 656.613 638.18 658.466C633.594 660.32 628.682 661.228 623.737 661.139Z" fill="white"/>
</svg>
